<svg width="19" height="19" viewBox="0 0 19 19" fill="none" xmlns="http://www.w3.org/2000/svg">
<g clip-path="url(#clip0)">
<path d="M1.82363 6.63744C2.06397 6.80704 2.78847 7.31076 3.99715 8.14833C5.20587 8.98591 6.13183 9.63082 6.77507 10.0831C6.84574 10.1327 6.99589 10.2405 7.22557 10.4066C7.4553 10.5728 7.64618 10.7071 7.79807 10.8096C7.95007 10.912 8.13382 11.0269 8.34951 11.1541C8.56513 11.2812 8.76837 11.3768 8.95922 11.44C9.1501 11.5038 9.3268 11.5354 9.48934 11.5354H9.5H9.5107C9.67324 11.5354 9.85001 11.5038 10.0409 11.44C10.2317 11.3768 10.4351 11.2811 10.6505 11.1541C10.8661 11.0267 11.0498 10.912 11.2018 10.8096C11.3538 10.7071 11.5445 10.5728 11.7744 10.4066C12.004 10.2403 12.1543 10.1327 12.225 10.0831C12.8752 9.63082 14.5294 8.48215 17.187 6.63721C17.703 6.27688 18.1341 5.84208 18.4803 5.33313C18.8269 4.82439 19 4.29071 19 3.73236C19 3.26578 18.832 2.86637 18.4962 2.53419C18.1605 2.20193 17.7628 2.03589 17.3035 2.03589H1.69636C1.15212 2.03589 0.733297 2.21964 0.439956 2.58714C0.146652 2.95472 0 3.41417 0 3.96546C0 4.41077 0.194447 4.89332 0.583154 5.41282C0.971825 5.93236 1.38545 6.3406 1.82363 6.63744Z" fill="#86BC42"/>
<path d="M17.9396 7.77173C15.6214 9.34079 13.8611 10.5602 12.6596 11.4297C12.2567 11.7265 11.9299 11.9581 11.6789 12.1241C11.4279 12.2902 11.0941 12.4599 10.6769 12.633C10.26 12.8063 9.87138 12.8927 9.51083 12.8927H9.50002H9.48936C9.12888 12.8927 8.74006 12.8063 8.32309 12.633C7.90612 12.4599 7.57208 12.2902 7.32115 12.1241C7.07029 11.9581 6.74334 11.7265 6.34049 11.4297C5.38619 10.73 3.62971 9.5105 1.07098 7.77173C0.667973 7.50331 0.311018 7.19563 0 6.84933V15.2676C0 15.7344 0.166037 16.1336 0.498297 16.4658C0.830482 16.7982 1.22992 16.9643 1.69647 16.9643H17.3036C17.7701 16.9643 18.1695 16.7982 18.5017 16.4658C18.834 16.1335 19 15.7345 19 15.2676V6.84933C18.696 7.18847 18.3427 7.49614 17.9396 7.77173Z" fill="#86BC42"/>
</g>
<defs>
<clipPath id="clip0">
<rect width="19" height="19" fill="white"/>
</clipPath>
</defs>
</svg>
