<svg width="9" height="12" viewBox="0 0 9 12" fill="none" xmlns="http://www.w3.org/2000/svg">
<path d="M8.55469 12H0.570312V10.3203L3.4375 7.42188C4.28646 6.55208 4.84115 5.95052 5.10156 5.61719C5.36198 5.27865 5.54948 4.96615 5.66406 4.67969C5.77865 4.39323 5.83594 4.09635 5.83594 3.78906C5.83594 3.33073 5.70833 2.98958 5.45312 2.76562C5.20312 2.54167 4.86719 2.42969 4.44531 2.42969C4.0026 2.42969 3.57292 2.53125 3.15625 2.73438C2.73958 2.9375 2.30469 3.22656 1.85156 3.60156L0.539062 2.04688C1.10156 1.56771 1.56771 1.22917 1.9375 1.03125C2.30729 0.833333 2.71094 0.682292 3.14844 0.578125C3.58594 0.46875 4.07552 0.414062 4.61719 0.414062C5.33073 0.414062 5.96094 0.544271 6.50781 0.804688C7.05469 1.0651 7.47917 1.42969 7.78125 1.89844C8.08333 2.36719 8.23438 2.90365 8.23438 3.50781C8.23438 4.03385 8.14062 4.52865 7.95312 4.99219C7.77083 5.45052 7.48438 5.92188 7.09375 6.40625C6.70833 6.89062 6.02604 7.58073 5.04688 8.47656L3.57812 9.85938V9.96875H8.55469V12Z" fill="#86BC42"/>
</svg>
