<svg width="9" height="13" viewBox="0 0 9 13" fill="none" xmlns="http://www.w3.org/2000/svg">
<path d="M8.10938 3.13281C8.10938 3.84635 7.89323 4.45312 7.46094 4.95312C7.02865 5.45312 6.42188 5.79688 5.64062 5.98438V6.03125C6.5625 6.14583 7.26042 6.42708 7.73438 6.875C8.20833 7.31771 8.44531 7.91667 8.44531 8.67188C8.44531 9.77083 8.04688 10.6276 7.25 11.2422C6.45312 11.8516 5.3151 12.1562 3.83594 12.1562C2.59635 12.1562 1.4974 11.9505 0.539062 11.5391V9.48438C0.981771 9.70833 1.46875 9.89062 2 10.0312C2.53125 10.1719 3.05729 10.2422 3.57812 10.2422C4.375 10.2422 4.96354 10.1068 5.34375 9.83594C5.72396 9.5651 5.91406 9.13021 5.91406 8.53125C5.91406 7.99479 5.69531 7.61458 5.25781 7.39062C4.82031 7.16667 4.1224 7.05469 3.16406 7.05469H2.29688V5.20312H3.17969C4.0651 5.20312 4.71094 5.08854 5.11719 4.85938C5.52865 4.625 5.73438 4.22656 5.73438 3.66406C5.73438 2.79948 5.19271 2.36719 4.10938 2.36719C3.73438 2.36719 3.35156 2.42969 2.96094 2.55469C2.57552 2.67969 2.14583 2.89583 1.67188 3.20312L0.554688 1.53906C1.59635 0.789062 2.83854 0.414062 4.28125 0.414062C5.46354 0.414062 6.39583 0.653646 7.07812 1.13281C7.76562 1.61198 8.10938 2.27865 8.10938 3.13281Z" fill="#86BC42"/>
</svg>
