<svg width="19" height="19" viewBox="0 0 19 19" fill="none" xmlns="http://www.w3.org/2000/svg">
<g clip-path="url(#clip0)">
<path d="M1.96779 6.43313L1.96776 6.43317C2.20702 6.60201 2.93044 7.10498 4.13954 7.94285C5.34831 8.78046 6.27478 9.42572 6.91872 9.8785C6.99116 9.92932 7.14277 10.0382 7.37208 10.204L7.37213 10.204C7.60059 10.3693 7.78902 10.5019 7.93777 10.6022C8.0845 10.7011 8.26379 10.8133 8.4765 10.9387C8.68063 11.0591 8.86761 11.1463 9.0379 11.2027L9.03847 11.2029C9.20936 11.26 9.35903 11.2854 9.48934 11.2854H9.5H9.5107C9.641 11.2854 9.79075 11.26 9.96168 11.2029L9.96218 11.2028C10.1324 11.1463 10.3195 11.059 10.5234 10.9388C10.7361 10.8132 10.9154 10.7011 11.0621 10.6023C11.2109 10.502 11.3991 10.3694 11.6278 10.204C11.8574 10.0378 12.0091 9.92919 12.0814 9.87845L12.0822 9.87788C12.7325 9.42554 14.3866 8.27691 17.0439 6.43221C17.5355 6.08891 17.9448 5.67577 18.2737 5.19249L18.2737 5.19238C18.595 4.72076 18.75 4.23545 18.75 3.73236C18.75 3.33349 18.6094 2.99781 18.3204 2.71191L18.3204 2.71188C18.03 2.42451 17.695 2.28589 17.3035 2.28589H1.69636C1.21472 2.28589 0.873465 2.4448 0.63537 2.74307L1.96779 6.43313ZM1.96779 6.43313L1.96384 6.43046M1.96779 6.43313L1.96384 6.43046M1.96384 6.43046C1.55321 6.15228 1.15895 5.76515 0.783336 5.26307L0.783324 5.26305M1.96384 6.43046L0.783324 5.26305M0.783324 5.26305C0.41275 4.76778 0.25 4.33708 0.25 3.96546C0.25 3.46065 0.38327 3.05903 0.635345 2.7431L0.783324 5.26305Z" stroke="#86BC42" stroke-width="0.5"/>
<path d="M18.0807 7.97814L18.0797 7.9788C15.7627 9.54707 14.0053 10.7645 12.807 11.6317C12.4032 11.9291 12.0728 12.1634 11.8169 12.3326C11.8168 12.3327 11.8168 12.3327 11.8168 12.3327L11.6789 12.1242C11.4279 12.2903 11.0941 12.4599 10.6769 12.633L18.0807 7.97814ZM18.0807 7.97814C18.3202 7.81442 18.5433 7.63938 18.75 7.45309V15.2677C18.75 15.6677 18.6107 16.0033 18.3249 16.2891L18.3249 16.2891C18.0392 16.5749 17.7032 16.7143 17.3036 16.7143H1.69647C1.29674 16.7143 0.960765 16.5749 0.675113 16.2891L0.675064 16.2891C0.389336 16.0034 0.25 15.6676 0.25 15.2677V7.45197C0.461378 7.64159 0.688558 7.81736 0.931412 7.97918C3.48974 9.71768 5.24241 10.9346 6.19255 11.6313L18.0807 7.97814ZM9.51083 13.1428C9.91139 13.1428 10.3328 13.0468 10.7728 12.8639L6.34049 11.4297C6.74334 11.7265 7.07029 11.9582 7.32115 12.1242L7.18315 12.3326C7.18316 12.3326 7.18318 12.3326 7.18319 12.3326C7.45221 12.5107 7.80202 12.6874 8.22712 12.8638C8.6672 13.0468 9.08886 13.1428 9.48936 13.1428H9.50002H9.51083Z" stroke="#86BC42" stroke-width="0.5"/>
</g>
<defs>
<clipPath id="clip0">
<rect width="19" height="19" fill="white"/>
</clipPath>
</defs>
</svg>
