<svg width="21" height="21" viewBox="0 0 21 21" fill="none" xmlns="http://www.w3.org/2000/svg">
<path d="M15.7491 0.0043694L13.0259 0C9.96651 0 7.98937 2.02849 7.98937 5.16813V7.55098H5.25132C5.01472 7.55098 4.82312 7.7428 4.82312 7.9794V11.4319C4.82312 11.6685 5.01494 11.8601 5.25132 11.8601H7.98937V20.5718C7.98937 20.8084 8.18097 21 8.41757 21H11.99C12.2266 21 12.4182 20.8082 12.4182 20.5718V11.8601H15.6196C15.8562 11.8601 16.0478 11.6685 16.0478 11.4319L16.0491 7.9794C16.0491 7.8658 16.0039 7.757 15.9237 7.6766C15.8435 7.5962 15.7343 7.55098 15.6207 7.55098H12.4182V5.53101C12.4182 4.56013 12.6495 4.06726 13.9142 4.06726L15.7487 4.0666C15.9851 4.0666 16.1767 3.87479 16.1767 3.6384V0.432571C16.1767 0.196405 15.9853 0.00480634 15.7491 0.0043694Z" fill="#86BC42"/>
</svg>
