<svg width="21" height="21" viewBox="0 0 21 21" fill="none" xmlns="http://www.w3.org/2000/svg">
<g clip-path="url(#clip0)">
<path d="M20.6758 2.08603C20.4193 1.77232 20.0351 1.59961 19.5938 1.59961C19.354 1.59961 19.0999 1.65008 18.8387 1.74989L1.06262 8.53558C0.119265 8.89558 -0.00778716 9.43584 0.000383911 9.72583C0.00855498 10.0158 0.166049 10.5481 1.12831 10.8542C1.13408 10.856 1.13985 10.8578 1.14562 10.8594L4.83286 11.9146L6.82692 17.6167C7.09881 18.3941 7.70908 18.877 8.4198 18.877C8.86793 18.877 9.30869 18.6892 9.69449 18.3341L11.9752 16.2342L15.2832 18.8978C15.2835 18.8981 15.284 18.8983 15.2843 18.8986L15.3157 18.9239C15.3186 18.9261 15.3216 18.9285 15.3245 18.9308C15.6922 19.216 16.0936 19.3666 16.4856 19.3667H16.4858C17.2518 19.3667 17.8617 18.7997 18.0394 17.9224L20.952 3.54064C21.069 2.96338 20.9709 2.44684 20.6758 2.08603ZM6.06637 11.7141L13.1802 8.07992L8.75065 12.7866C8.67807 12.8637 8.62664 12.9581 8.60133 13.0608L7.74721 16.5205L6.06637 11.7141ZM8.86088 17.4289C8.8314 17.456 8.80176 17.4802 8.77212 17.5025L9.56456 14.293L11.006 15.4538L8.86088 17.4289ZM19.746 3.29631L16.8335 17.6782C16.8054 17.8158 16.7159 18.1361 16.4856 18.1361C16.3719 18.1361 16.229 18.0741 16.0827 17.9615L12.3342 14.9433C12.3338 14.9428 12.3331 14.9423 12.3325 14.942L10.1021 13.146L16.5077 6.33948C16.7128 6.12158 16.7314 5.78785 16.5518 5.54848C16.372 5.30912 16.0463 5.23382 15.7799 5.37L5.2443 10.7523L1.50691 9.68305L19.2776 2.89945C19.4277 2.84209 19.5325 2.83008 19.5938 2.83008C19.6315 2.83008 19.6985 2.83456 19.7233 2.86517C19.756 2.90506 19.7976 3.04108 19.746 3.29631Z" fill="#86BC42"/>
</g>
<defs>
<clipPath id="clip0">
<rect width="21" height="21" fill="white"/>
</clipPath>
</defs>
</svg>
