<svg width="21" height="21" viewBox="0 0 21 21" fill="none" xmlns="http://www.w3.org/2000/svg">
<path d="M20.666 3.79795C20.1994 4.00485 19.715 4.16808 19.218 4.28625C19.7657 3.76585 20.1774 3.11494 20.4097 2.38841C20.476 2.181 20.2507 2.00165 20.0635 2.1127C19.372 2.52281 18.6273 2.83047 17.8498 3.02724C17.8047 3.03865 17.7582 3.04444 17.7115 3.04444C17.5699 3.04444 17.4322 2.99186 17.3239 2.89642C16.4967 2.16738 15.4328 1.76587 14.3283 1.76587C13.8503 1.76587 13.3678 1.84037 12.894 1.98731C11.4259 2.44263 10.2932 3.65357 9.93787 5.14759C9.80454 5.70797 9.76845 6.26887 9.8305 6.81467C9.83762 6.87739 9.80797 6.92116 9.78969 6.94169C9.75759 6.97769 9.71208 6.99832 9.66482 6.99832C9.65954 6.99832 9.65412 6.99806 9.64874 6.99755C6.43532 6.699 3.5376 5.15086 1.48934 2.63837C1.38489 2.51022 1.1846 2.52594 1.10135 2.66873C0.700246 3.35686 0.488277 4.14391 0.488277 4.94478C0.488277 6.17215 0.981385 7.32882 1.83791 8.17203C1.47772 8.08663 1.1291 7.95213 0.805257 7.77226C0.648585 7.68522 0.455816 7.79709 0.453615 7.97629C0.431189 9.79963 1.49871 11.4221 3.09789 12.1526C3.06569 12.1534 3.03348 12.1538 3.00123 12.1538C2.74774 12.1538 2.49107 12.1293 2.23845 12.081C2.06201 12.0473 1.91379 12.2147 1.96857 12.3858C2.48764 14.0063 3.88295 15.2008 5.55268 15.472C4.1669 16.4023 2.55313 16.893 0.873507 16.893L0.349883 16.8926C0.188552 16.8926 0.0521038 16.9978 0.0109901 17.1541C-0.0295092 17.308 0.0450894 17.4703 0.182664 17.5504C2.07533 18.6518 4.23418 19.234 6.42677 19.234C8.34601 19.234 10.1413 18.8531 11.7628 18.102C13.2493 17.4134 14.5629 16.4291 15.6671 15.1764C16.6957 14.0094 17.5 12.6623 18.0577 11.1725C18.5893 9.75232 18.8703 8.237 18.8703 6.79029V6.72138C18.8702 6.48908 18.9753 6.27051 19.1586 6.12172C19.8541 5.55698 20.4598 4.8922 20.9588 4.14586C21.0905 3.94879 20.8828 3.7018 20.666 3.79795Z" fill="#86BC42"/>
</svg>
